<svg width="21" height="17" viewBox="0 0 21 17" fill="none" xmlns="http://www.w3.org/2000/svg">
    <path
        d="M4.42912 6.23147C4.42912 7.15831 5.18744 7.91663 6.11428 7.91663C7.04112 7.91663 7.79944 7.15831 7.79944 6.23147C7.79944 5.30463 7.04112 4.54631 6.11428 4.54631C5.18744 4.54631 4.42912 5.30463 4.42912 6.23147ZM10.3272 0.333411C9.40034 0.333411 8.64202 1.09173 8.64202 2.01857C8.64202 2.94541 9.40034 3.70373 10.3272 3.70373C11.254 3.70373 12.0123 2.94541 12.0123 2.01857C12.0123 1.09173 11.254 0.333411 10.3272 0.333411ZM14.5401 4.54631C13.6132 4.54631 12.8549 5.30463 12.8549 6.23147C12.8549 7.15831 13.6132 7.91663 14.5401 7.91663C15.4669 7.91663 16.2252 7.15831 16.2252 6.23147C16.2252 5.30463 15.4669 4.54631 14.5401 4.54631ZM1.90138 8.75921C0.974542 8.75921 0.21622 9.51753 0.21622 10.4444C0.21622 11.3712 0.974541 12.1295 1.90138 12.1295C2.82822 12.1295 3.58654 11.3712 3.58654 10.4444C3.58654 9.51753 2.82822 8.75921 1.90138 8.75921ZM18.753 8.75921C17.8261 8.75921 17.0678 9.51753 17.0678 10.4444C17.0678 11.3712 17.8261 12.1295 18.753 12.1295C19.6798 12.1295 20.4381 11.3712 20.4381 10.4444C20.4381 9.51753 19.6798 8.75921 18.753 8.75921ZM4.42912 10.4279C4.42912 11.3547 5.18744 12.1131 6.11428 12.1131C7.04112 12.1131 7.79944 11.3548 7.79944 10.4279C7.79944 9.50107 7.04112 8.74275 6.11428 8.74275C5.18744 8.74275 4.42912 9.50107 4.42912 10.4279ZM10.3272 4.52985C9.40034 4.52985 8.64202 5.28817 8.64202 6.21501C8.64202 7.14185 9.40034 7.90017 10.3272 7.90017C11.254 7.90017 12.0123 7.14185 12.0123 6.21501C12.0123 5.28817 11.254 4.52985 10.3272 4.52985ZM14.5401 8.74275C13.6132 8.74275 12.8549 9.50107 12.8549 10.4279C12.8549 11.3548 13.6132 12.1131 14.5401 12.1131C15.4669 12.1131 16.2252 11.3548 16.2252 10.4279C16.2252 9.50107 15.4669 8.74275 14.5401 8.74275ZM1.90138 12.9557C0.974541 12.9557 0.21622 13.714 0.21622 14.6408C0.216219 15.5676 0.974541 16.326 1.90138 16.326C2.82822 16.326 3.58654 15.5676 3.58654 14.6408C3.58654 13.714 2.82822 12.9557 1.90138 12.9557ZM18.753 12.9557C17.8261 12.9557 17.0678 13.714 17.0678 14.6408C17.0678 15.5676 17.8261 16.326 18.753 16.326C19.6798 16.326 20.4381 15.5676 20.4381 14.6408C20.4381 13.714 19.6798 12.9557 18.753 12.9557Z"
        fill="black" />
</svg>