<?xml version="1.0" standalone="no"?>
<!DOCTYPE svg PUBLIC "-//W3C//DTD SVG 20010904//EN"
 "http://www.w3.org/TR/2001/REC-SVG-20010904/DTD/svg10.dtd">
<svg version="1.0" xmlns="http://www.w3.org/2000/svg"
 width="7071.000000pt" height="7071.000000pt" viewBox="0 0 7071.000000 7071.000000"
 preserveAspectRatio="xMidYMid meet">

<g transform="translate(0.000000,7071.000000) scale(0.100000,-0.100000)"
fill="#000000" stroke="none">
<path d="M36530 65753 c-14 -2 -82 -13 -152 -24 -150 -23 -360 -81 -518 -142
-221 -86 -359 -157 -820 -424 -304 -177 -412 -239 -1070 -618 -654 -377 -847
-488 -1065 -615 -198 -115 -470 -272 -520 -300 -38 -21 -797 -460 -1199 -693
-104 -60 -262 -151 -350 -202 -89 -50 -237 -136 -331 -190 -93 -54 -228 -131
-300 -173 -71 -41 -188 -109 -260 -150 -71 -41 -213 -123 -315 -182 -102 -59
-293 -169 -425 -245 -132 -76 -350 -203 -485 -281 -135 -78 -261 -151 -280
-161 -19 -11 -240 -138 -490 -283 -250 -145 -558 -322 -685 -395 -126 -73
-302 -174 -390 -225 -88 -51 -248 -143 -355 -205 -189 -109 -334 -193 -585
-338 -66 -38 -239 -138 -385 -222 -146 -84 -364 -210 -485 -280 -121 -70 -325
-187 -452 -261 -128 -74 -404 -233 -613 -354 -209 -121 -487 -282 -618 -357
-130 -75 -322 -186 -427 -246 -104 -61 -262 -152 -351 -202 -88 -51 -248 -143
-355 -205 -107 -62 -255 -147 -329 -190 -74 -43 -290 -168 -480 -278 -190
-110 -363 -210 -385 -222 -50 -28 -297 -171 -615 -355 -135 -78 -353 -204
-485 -280 -132 -76 -325 -188 -430 -248 -104 -61 -262 -152 -351 -202 -88 -51
-246 -142 -350 -202 -191 -111 -848 -491 -1684 -973 -250 -145 -509 -295 -575
-333 -66 -38 -239 -138 -385 -222 -146 -84 -422 -244 -615 -355 -192 -111
-487 -281 -655 -377 -552 -318 -660 -388 -929 -603 -156 -124 -547 -502 -662
-638 -470 -559 -790 -1069 -1056 -1687 -234 -543 -406 -1215 -429 -1680 -3
-60 -7 -116 -10 -123 -2 -8 0 -1425 6 -3150 5 -1726 17 -5682 25 -8792 9
-3110 24 -8614 35 -12230 11 -3616 24 -8422 30 -10680 6 -2531 14 -4178 21
-4295 28 -528 155 -942 399 -1299 113 -166 290 -342 455 -453 33 -22 348 -208
700 -413 352 -205 687 -400 745 -434 58 -35 152 -90 210 -123 58 -34 200 -116
315 -184 116 -67 246 -143 290 -169 492 -286 591 -343 600 -350 6 -4 30 -19
55 -32 25 -14 437 -254 915 -533 479 -279 915 -529 970 -555 248 -117 493
-170 782 -170 371 0 726 87 1112 271 146 70 213 108 756 422 171 98 371 214
445 257 74 43 222 128 329 190 107 62 269 155 360 208 183 105 202 116 441
254 91 53 232 134 314 182 82 47 151 86 153 86 2 0 20 11 41 23 20 13 111 67
202 119 91 52 210 121 265 153 55 32 316 183 580 335 264 152 525 303 580 335
55 32 219 127 365 210 146 84 348 201 450 260 102 59 320 185 485 280 165 95
383 221 485 280 102 59 273 158 380 220 232 133 1137 656 1265 730 50 29 133
77 185 107 l95 55 6 -341 c3 -187 7 -509 8 -714 2 -521 27 -731 122 -1032 50
-155 168 -396 254 -515 220 -306 516 -512 865 -600 320 -80 679 -61 1046 56
236 75 376 143 814 397 480 278 528 305 740 427 113 65 264 152 335 193 147
85 296 172 530 307 88 51 205 118 260 150 212 122 1079 623 1299 750 127 73
287 165 356 205 306 177 466 269 615 355 88 51 201 116 250 145 50 28 110 63
135 77 24 14 101 58 170 98 205 120 1100 636 1905 1100 127 73 313 181 415
240 102 59 291 168 420 243 129 74 361 208 515 297 154 89 356 206 449 259
155 90 993 573 1231 711 55 32 157 91 228 131 70 41 187 108 260 150 246 143
451 261 677 391 124 72 531 307 905 523 374 216 768 444 875 505 107 62 251
145 320 185 309 179 466 270 615 355 88 51 205 118 260 150 279 162 1157 668
1425 823 91 52 182 106 202 119 21 12 39 23 42 23 2 0 98 54 212 121 115 67
272 157 349 202 77 44 192 110 255 147 63 37 223 129 355 205 132 76 350 202
485 280 135 78 353 204 485 280 132 76 353 203 490 283 138 79 313 180 390
225 77 44 192 111 255 148 63 36 131 75 150 86 19 11 112 64 205 118 94 54
271 157 395 228 124 71 266 153 315 182 50 28 194 112 320 185 127 73 361 208
520 300 160 92 334 193 388 224 53 31 141 81 195 112 53 31 111 64 127 74 111
63 372 214 380 220 6 4 32 20 60 35 27 15 234 134 460 265 225 130 516 298
645 372 129 74 525 303 880 508 355 205 735 425 845 488 110 63 295 170 410
237 116 66 335 193 488 281 540 309 749 464 1097 813 331 332 552 617 798
1027 358 599 589 1230 686 1879 37 247 39 385 32 1970 -3 847 -8 2566 -11
3820 -14 6030 -27 9452 -35 9580 -35 517 -216 976 -507 1285 -227 241 -494
386 -827 452 -144 28 -446 30 -601 4 -145 -24 -353 -81 -485 -133 -210 -83
-317 -141 -1370 -751 -52 -30 -183 -105 -290 -167 -107 -62 -256 -147 -330
-190 -306 -177 -384 -222 -570 -330 -107 -61 -283 -163 -390 -225 -107 -62
-267 -155 -355 -205 -88 -51 -290 -168 -450 -260 -159 -92 -409 -236 -555
-320 -270 -156 -495 -286 -675 -390 -55 -32 -172 -100 -260 -150 -88 -51 -200
-116 -250 -145 -49 -28 -108 -62 -130 -75 -22 -12 -229 -131 -460 -265 -231
-134 -494 -286 -585 -338 -211 -121 -922 -532 -1580 -912 -74 -43 -324 -187
-555 -320 -231 -134 -476 -275 -545 -315 -69 -40 -168 -97 -220 -127 -52 -30
-183 -106 -290 -168 -107 -62 -298 -173 -425 -245 -126 -73 -300 -173 -385
-222 -193 -112 -376 -218 -590 -341 -220 -126 -345 -198 -795 -459 -209 -121
-407 -235 -440 -253 -33 -18 -64 -36 -70 -40 -5 -4 -68 -41 -140 -82 -71 -41
-201 -116 -289 -167 -87 -50 -161 -89 -164 -86 -3 2 -11 1973 -18 4377 -7
2405 -20 6781 -29 9723 -9 2943 -18 6390 -20 7660 -7 3488 -12 4224 -29 4390
-65 618 -288 1103 -665 1446 -110 100 -186 150 -526 353 -397 236 -1519 893
-2400 1404 -110 63 -290 168 -400 232 -110 64 -319 186 -465 270 -146 85 -371
215 -500 290 -710 412 -695 404 -846 461 -212 80 -391 110 -640 108 -93 -1
-180 -4 -194 -6z m-1875 -2388 c187 -109 396 -231 465 -270 69 -40 287 -166
485 -282 372 -216 1163 -676 1645 -956 349 -202 445 -258 548 -320 l83 -49
-113 -65 c-62 -36 -214 -124 -337 -195 -123 -71 -240 -139 -260 -150 -20 -11
-146 -84 -281 -162 -323 -188 -709 -411 -1005 -581 -132 -76 -334 -193 -450
-260 -115 -67 -334 -193 -485 -280 -151 -87 -372 -215 -490 -283 -118 -68
-276 -159 -350 -202 -74 -43 -274 -159 -445 -258 -170 -98 -418 -241 -550
-317 -132 -77 -323 -187 -425 -245 -102 -59 -241 -140 -310 -180 -69 -40 -246
-142 -395 -228 -148 -85 -355 -204 -460 -265 -231 -134 -330 -191 -545 -315
-91 -52 -169 -98 -175 -102 -5 -4 -30 -18 -55 -32 -25 -14 -121 -69 -215 -123
-93 -54 -271 -157 -395 -228 -124 -71 -265 -153 -315 -182 -395 -228 -906
-523 -1030 -595 -330 -190 -581 -335 -1035 -598 -576 -333 -939 -542 -2130
-1230 -235 -135 -351 -202 -595 -344 -71 -41 -247 -143 -390 -225 -143 -83
-347 -201 -454 -263 -107 -62 -267 -154 -355 -205 -435 -250 -1595 -920 -1776
-1025 -63 -37 -135 -79 -160 -93 -25 -14 -85 -48 -135 -77 -49 -29 -196 -113
-325 -188 -129 -74 -287 -165 -350 -202 -112 -65 -663 -383 -1125 -650 -126
-73 -307 -177 -401 -231 -94 -55 -178 -99 -187 -99 -9 0 -60 26 -114 58 -124
74 -368 217 -543 317 -116 67 -715 416 -995 580 -49 29 -232 135 -405 235
-173 101 -362 211 -420 245 -58 34 -152 89 -210 122 -371 216 -956 556 -958
558 -2 2 27 21 65 43 108 64 564 328 605 350 20 12 241 139 490 283 586 339
579 335 1418 818 393 227 776 448 850 491 74 43 254 146 400 230 146 85 317
183 380 220 63 37 178 103 255 147 77 45 237 137 355 206 118 68 290 168 383
221 475 273 521 300 947 546 69 40 231 133 360 207 129 75 348 201 485 280
138 80 311 180 385 223 283 163 665 384 910 526 140 81 269 155 287 165 29 16
301 173 623 359 69 40 199 115 290 168 91 52 224 129 295 170 72 41 189 109
260 150 72 41 213 123 315 182 102 59 392 226 645 372 561 324 1138 657 1300
751 66 38 255 147 420 242 165 95 356 205 425 245 69 40 247 143 395 228 149
86 353 204 455 262 102 59 230 133 285 165 55 32 172 99 260 150 88 51 232
134 320 185 88 51 264 152 390 225 127 72 417 240 645 372 228 132 507 293
620 358 113 65 331 191 485 280 154 89 402 232 550 318 305 175 518 298 715
412 74 44 157 91 185 106 l50 28 40 -23 c22 -12 193 -112 380 -221z m6885
-1240 c332 -88 552 -347 649 -765 53 -225 49 194 70 -6965 11 -3658 27 -9188
36 -12290 8 -3102 18 -6084 21 -6626 l6 -986 -78 -45 c-44 -25 -124 -71 -179
-103 -119 -69 -277 -160 -555 -320 -113 -65 -313 -181 -445 -257 -132 -76
-243 -138 -246 -138 -4 0 -9 1182 -13 2628 -6 2493 -33 11373 -56 18447 -7
2075 -14 3279 -21 3330 -59 464 -349 869 -777 1084 -237 119 -515 170 -777
142 -119 -13 -186 -28 -310 -68 -129 -42 -139 -47 -1114 -611 -195 -112 -429
-247 -520 -300 -91 -52 -240 -138 -331 -190 -91 -52 -293 -169 -450 -260 -157
-90 -346 -199 -420 -242 -288 -166 -674 -389 -875 -505 -115 -67 -334 -193
-485 -280 -151 -87 -292 -169 -312 -181 -21 -13 -39 -24 -42 -24 -2 0 -55 -30
-117 -66 -146 -85 -463 -268 -959 -554 -356 -205 -649 -374 -985 -568 -71 -41
-202 -117 -291 -167 -88 -51 -246 -142 -350 -202 -275 -160 -658 -380 -1079
-623 -203 -117 -422 -244 -485 -281 -63 -36 -133 -77 -155 -89 -37 -21 -260
-149 -555 -320 -69 -40 -231 -133 -360 -207 -129 -75 -291 -168 -360 -208 -69
-40 -168 -97 -220 -127 -733 -423 -1036 -597 -1475 -851 -286 -165 -619 -357
-740 -427 -121 -70 -454 -262 -740 -427 -514 -297 -1148 -663 -1605 -926 -129
-74 -334 -192 -455 -262 -121 -70 -308 -178 -415 -240 -107 -62 -240 -138
-295 -170 -55 -32 -221 -127 -370 -213 -148 -85 -364 -210 -480 -277 -115 -67
-318 -184 -450 -260 -132 -75 -280 -161 -330 -190 -49 -29 -236 -137 -415
-240 -363 -210 -422 -248 -565 -368 -529 -445 -1009 -1254 -1158 -1952 -52
-241 -52 -253 -49 -1120 1 -445 7 -2331 12 -4190 23 -7663 41 -13801 60
-19645 11 -3402 22 -6716 24 -7365 3 -1163 3 -1182 24 -1294 79 -411 312 -753
668 -983 131 -84 335 -165 504 -199 96 -19 144 -23 290 -22 150 0 192 4 292
26 214 48 271 75 768 362 140 81 343 198 450 260 194 111 257 148 690 397 124
72 297 172 385 223 88 51 322 186 520 301 198 114 475 273 615 355 223 128
691 399 1365 787 110 64 286 165 390 225 105 61 262 152 351 202 88 51 246
142 350 203 104 60 209 121 234 135 25 14 213 122 418 241 206 119 377 216
382 216 9 0 23 -2685 18 -3735 l-3 -750 -465 -268 c-637 -367 -1240 -716
-1390 -803 -69 -40 -330 -190 -580 -335 -250 -144 -511 -294 -580 -334 -69
-40 -213 -123 -320 -185 -107 -62 -285 -164 -395 -228 -110 -63 -274 -158
-365 -210 -91 -52 -222 -128 -292 -168 -71 -41 -188 -108 -260 -150 -73 -43
-216 -125 -318 -184 -102 -59 -291 -168 -420 -242 -129 -75 -336 -194 -460
-266 -124 -71 -243 -140 -265 -152 -22 -12 -92 -53 -155 -89 -63 -37 -180
-105 -260 -151 -80 -46 -197 -113 -260 -150 -233 -135 -714 -413 -907 -523
-273 -157 -570 -329 -679 -392 -386 -227 -726 -328 -991 -295 -131 16 -168 27
-283 82 -95 46 -114 60 -200 147 -140 143 -228 307 -285 531 -57 226 -54 151
-65 2170 -23 4352 -31 6322 -40 9690 -5 1961 -14 4787 -20 6280 -6 1493 -15
4632 -20 6975 -5 2343 -14 5738 -20 7545 -5 1807 -11 4088 -12 5070 l-3 1785
22 165 c66 490 205 937 447 1435 408 840 1003 1565 1616 1969 69 46 188 119
265 163 155 90 486 281 940 543 165 96 325 188 355 205 232 134 475 274 580
335 69 40 247 142 395 228 346 200 637 368 895 517 544 314 1115 644 1200 693
201 116 360 208 480 277 69 40 143 83 165 95 22 12 92 53 155 89 63 37 178
104 255 148 77 45 253 146 390 225 138 80 401 232 585 338 184 106 387 223
450 260 63 37 239 138 390 225 151 87 370 213 485 280 116 67 446 258 735 425
289 166 577 333 640 370 63 36 180 104 260 150 159 91 305 176 505 292 72 41
238 137 370 213 207 120 548 316 1065 615 74 43 232 134 350 202 118 69 289
168 380 220 91 52 210 121 265 153 55 32 316 183 580 335 264 152 541 312 615
355 74 43 223 129 330 190 107 62 263 152 345 200 83 48 175 101 205 118 30
16 102 58 160 92 58 34 168 98 245 142 77 45 237 137 355 205 118 69 323 187
455 263 236 136 406 234 1095 633 190 109 437 252 550 317 113 65 261 150 330
190 69 40 267 154 440 254 173 101 376 218 450 261 74 43 223 128 330 190 107
61 224 129 260 150 68 40 946 547 1295 748 110 63 254 147 320 185 159 94 398
208 514 246 85 29 218 62 296 74 66 11 311 -1 375 -18z m-1998 -3603 c120 -40
188 -83 283 -177 92 -92 152 -194 187 -322 26 -93 21 756 43 -7013 9 -3094 25
-8361 36 -11704 16 -4908 17 -6082 7 -6092 -7 -7 -112 -70 -233 -139 -121 -70
-341 -197 -490 -283 -148 -86 -353 -204 -455 -262 -102 -59 -270 -157 -375
-217 -104 -60 -383 -221 -620 -357 -414 -239 -556 -321 -805 -467 -63 -36
-133 -77 -155 -89 -22 -12 -130 -74 -240 -138 -223 -129 -415 -240 -705 -407
-107 -62 -239 -138 -292 -169 -54 -31 -140 -80 -190 -109 -51 -30 -253 -146
-448 -259 -195 -113 -447 -258 -560 -323 -113 -65 -376 -217 -585 -337 -209
-121 -443 -257 -520 -301 -77 -44 -176 -102 -220 -127 -44 -26 -172 -101 -285
-165 -113 -65 -247 -142 -297 -171 -204 -119 -285 -165 -443 -256 -91 -52
-327 -189 -525 -303 -198 -114 -450 -260 -560 -323 -110 -63 -252 -145 -315
-182 -210 -122 -634 -367 -675 -390 -775 -432 -1443 -1147 -1901 -2035 -312
-604 -488 -1173 -550 -1770 -15 -147 -15 -424 -7 -3315 4 -1735 8 -3345 8
-3578 l0 -423 -140 -81 c-501 -288 -706 -406 -900 -518 -121 -70 -422 -244
-670 -387 -247 -143 -558 -322 -690 -398 -132 -76 -296 -170 -365 -210 -439
-253 -1106 -638 -1165 -672 -38 -22 -374 -215 -745 -430 -371 -214 -697 -402
-725 -417 -27 -16 -102 -58 -165 -95 -112 -66 -226 -132 -520 -301 -80 -46
-197 -113 -260 -150 -596 -346 -621 -358 -787 -380 -159 -22 -332 13 -482 97
-94 52 -236 197 -284 290 -54 104 -76 174 -87 278 -5 51 -13 1877 -20 4265
-11 4342 -38 13731 -66 23235 -9 3042 -14 5565 -10 5608 30 360 237 851 537
1277 100 142 167 222 301 357 143 144 218 200 438 326 91 51 226 129 300 172
74 43 439 253 810 468 730 421 1247 720 1485 857 83 48 224 130 315 182 91 52
210 121 265 153 55 32 156 90 225 130 69 40 170 98 225 130 55 32 188 108 295
170 107 62 269 155 360 207 91 53 269 155 395 228 127 73 374 216 550 318 176
102 379 219 450 260 196 113 1144 660 1359 785 104 60 262 151 350 202 89 50
220 126 291 167 72 41 191 110 265 153 74 43 205 118 290 168 85 49 259 149
385 222 127 72 358 206 515 297 412 239 609 352 655 378 22 12 258 149 525
303 711 411 1213 700 1580 912 179 103 381 220 450 260 133 77 621 359 1360
785 250 145 541 312 645 373 105 60 278 160 385 222 107 62 238 137 290 167
52 30 201 116 330 190 129 75 291 168 360 208 69 40 231 133 360 208 129 74
330 190 445 257 181 105 337 195 845 487 52 30 239 138 415 240 352 204 396
227 471 252 89 29 137 35 249 32 90 -3 126 -9 197 -34z m-24699 -6176 c51 -29
815 -472 982 -569 634 -369 865 -503 891 -517 17 -10 123 -72 235 -137 112
-66 263 -154 334 -195 72 -41 175 -101 230 -133 55 -32 114 -66 131 -76 17 -9
125 -72 240 -140 256 -150 423 -247 531 -308 46 -25 83 -49 83 -52 0 -4 -72
-72 -159 -153 -88 -81 -174 -163 -192 -184 -17 -20 -65 -72 -106 -114 -40 -43
-121 -135 -179 -205 -649 -778 -1124 -1714 -1334 -2624 -22 -97 -40 -183 -40
-192 0 -33 -23 -26 -137 42 -108 63 -838 489 -1063 619 -182 106 -1723 1003
-2035 1185 -132 77 -256 149 -275 160 -44 24 -204 118 -208 122 -5 4 28 247
48 359 57 302 162 645 298 971 58 140 243 508 323 645 344 587 816 1131 1274
1468 39 29 74 52 78 52 5 0 27 -11 50 -24z m-1876 -4679 c98 -58 239 -140 313
-183 74 -43 187 -108 250 -144 278 -161 1616 -939 1720 -1000 63 -37 300 -175
525 -305 226 -131 460 -267 521 -303 l111 -64 7 -1047 c3 -575 11 -2745 16
-4821 6 -2076 19 -6801 30 -10500 11 -3699 26 -9153 35 -12120 8 -2967 17
-5677 20 -6022 4 -506 3 -628 -7 -628 -7 0 -40 16 -73 36 -33 20 -145 86 -250
147 -104 61 -244 142 -310 180 -66 38 -176 102 -245 142 -69 39 -291 169 -495
287 -373 217 -1427 829 -1955 1136 -157 90 -293 172 -302 180 -17 14 -18 86
-18 1251 0 680 -6 3263 -14 5741 -8 2478 -17 5547 -20 6820 -3 1273 -13 4428
-21 7010 -8 2582 -19 6540 -25 8795 -5 2255 -13 4421 -16 4814 -6 651 -5 714
10 708 8 -3 95 -53 193 -110z m44333 -5867 c141 -23 293 -106 374 -205 84
-103 161 -271 196 -430 40 -178 40 -146 50 -4210 5 -2150 15 -5431 21 -7290 6
-1859 9 -3472 6 -3585 -14 -504 -148 -997 -418 -1540 -268 -537 -602 -983
-1002 -1336 -194 -172 -310 -253 -607 -424 -80 -46 -183 -106 -230 -133 -47
-27 -191 -110 -320 -185 -129 -74 -278 -160 -330 -190 -218 -126 -1528 -882
-1680 -970 -201 -115 -397 -229 -466 -269 -27 -17 -72 -42 -99 -58 -27 -15
-151 -86 -275 -158 -211 -122 -315 -182 -800 -462 -183 -105 -1241 -716 -1450
-837 -52 -30 -187 -108 -300 -173 -113 -65 -272 -157 -355 -205 -82 -48 -224
-130 -315 -182 -158 -91 -293 -169 -555 -321 -66 -38 -226 -130 -355 -205
-231 -133 -1364 -787 -1550 -894 -52 -30 -185 -107 -295 -170 -110 -64 -283
-164 -385 -223 -102 -59 -205 -118 -230 -132 -25 -14 -97 -56 -160 -92 -142
-84 -579 -336 -800 -463 -91 -52 -295 -170 -455 -262 -159 -93 -353 -204 -430
-249 -182 -105 -339 -196 -500 -289 -274 -158 -1102 -637 -1140 -658 -45 -25
-232 -133 -653 -377 -155 -90 -373 -216 -485 -280 -111 -64 -287 -166 -392
-226 -104 -61 -262 -152 -351 -202 -88 -51 -248 -144 -355 -205 -206 -119
-626 -362 -1029 -595 -254 -147 -940 -543 -1495 -862 -176 -102 -349 -202
-385 -223 -36 -21 -211 -122 -390 -225 -179 -103 -397 -229 -485 -280 -176
-102 -347 -201 -1155 -668 -157 -90 -330 -190 -385 -222 -55 -32 -188 -108
-295 -170 -107 -61 -240 -138 -295 -170 -55 -32 -172 -99 -260 -150 -88 -51
-320 -184 -515 -297 -195 -113 -373 -216 -395 -228 -22 -12 -92 -53 -155 -90
-132 -77 -715 -414 -1060 -612 -129 -75 -307 -177 -395 -228 -158 -91 -362
-209 -745 -430 -259 -150 -412 -238 -605 -350 -202 -117 -305 -168 -429 -214
-273 -102 -514 -105 -700 -9 -87 45 -207 162 -257 248 -76 133 -126 306 -149
510 -7 69 -17 2062 -30 6505 -25 7960 -25 8487 -4 8652 75 595 326 1239 705
1804 281 422 618 778 977 1033 88 63 223 143 697 416 88 51 246 141 350 202
105 60 298 172 430 248 132 76 350 202 485 280 135 78 337 195 450 260 209
120 1081 623 1290 745 63 37 180 104 260 150 80 46 197 113 260 150 63 37 264
152 445 257 182 105 508 293 725 418 217 126 455 263 528 307 73 43 135 78
136 78 3 0 155 88 391 225 55 32 172 99 260 150 88 51 205 118 260 150 174
101 1310 756 1555 897 129 75 318 184 420 243 165 96 302 175 874 504 185 107
441 255 576 333 52 30 298 172 545 315 248 143 511 295 585 338 74 43 225 130
335 193 110 63 272 156 360 207 294 171 589 341 720 417 72 41 189 109 260
150 72 41 220 127 330 190 110 64 299 173 420 243 121 70 355 205 520 300 165
95 338 195 385 222 170 99 429 248 585 338 88 51 201 116 250 145 50 28 110
63 135 77 25 14 97 55 160 92 63 37 178 104 255 148 77 45 253 146 390 225
138 80 358 207 490 283 132 76 339 196 460 266 121 69 339 195 485 279 146 84
317 183 380 220 63 37 178 103 255 147 216 125 566 327 715 413 74 43 277 160
450 260 173 101 434 251 580 335 146 84 337 194 425 245 88 51 232 134 320
185 88 51 205 118 260 150 55 32 156 90 225 130 69 39 346 199 615 355 270
156 708 409 975 563 267 154 570 329 674 390 104 60 262 151 350 202 89 50
206 118 261 150 177 102 346 200 515 297 91 52 370 214 620 358 592 343 626
362 750 414 231 98 421 132 590 106z"/>
<path d="M31165 45905 c-136 -30 -155 -40 -535 -260 -102 -59 -275 -159 -385
-222 -110 -64 -256 -148 -325 -188 -69 -40 -168 -97 -220 -127 -52 -30 -257
-148 -455 -263 -198 -114 -466 -268 -595 -343 -129 -74 -332 -191 -450 -260
-118 -68 -278 -160 -355 -205 -77 -44 -192 -111 -255 -147 -63 -37 -178 -103
-255 -147 -77 -45 -253 -147 -392 -227 -138 -80 -256 -146 -262 -146 -6 0 -11
216 -13 633 -4 615 -5 634 -26 712 -47 172 -138 307 -259 388 -84 56 -124 72
-218 92 -100 20 -177 19 -285 -5 -211 -47 -418 -185 -583 -388 -42 -52 -658
-926 -1136 -1613 -59 -84 -211 -301 -463 -659 -110 -157 -210 -301 -223 -320
-34 -51 -838 -1197 -872 -1245 -27 -36 -843 -1203 -955 -1365 -73 -106 -125
-199 -167 -301 -161 -387 -118 -785 108 -1009 86 -85 175 -131 337 -174 71
-18 242 -64 379 -101 138 -37 288 -78 335 -90 114 -31 737 -198 1040 -280 135
-36 288 -77 340 -91 355 -95 1230 -331 1360 -367 99 -27 131 -31 235 -31 98 0
134 4 195 23 354 110 672 459 810 886 61 192 60 169 60 1080 l0 834 118 69
c108 64 205 120 712 412 102 58 244 140 315 182 262 152 1897 1096 2135 1233
135 78 337 194 450 260 113 65 277 160 366 210 619 356 614 353 744 485 142
144 265 346 329 540 63 192 62 172 61 1094 0 552 -4 864 -11 910 -6 39 -24
106 -39 148 -105 288 -399 449 -695 383z m45 -1478 c0 -700 -1 -725 -21 -797
-38 -137 -135 -289 -225 -353 -25 -18 -91 -58 -147 -91 -56 -32 -335 -193
-620 -357 -284 -165 -534 -309 -555 -320 -42 -24 -497 -287 -672 -389 -63 -37
-207 -120 -320 -185 -113 -65 -421 -243 -685 -395 -466 -269 -541 -312 -805
-465 -69 -40 -231 -133 -360 -208 -129 -74 -302 -174 -385 -222 -82 -48 -175
-101 -205 -117 -139 -77 -196 -143 -227 -261 -14 -56 -15 -156 -10 -957 7
-995 9 -968 -58 -1109 -20 -41 -55 -102 -80 -136 -51 -72 -177 -193 -210 -201
-12 -3 -82 11 -156 30 -124 33 -577 151 -1139 297 -319 82 -482 125 -630 164
-69 19 -240 63 -380 99 -140 36 -374 97 -520 135 -146 38 -346 90 -445 115
-99 26 -197 51 -217 57 -47 12 -53 31 -38 123 16 101 62 211 133 317 56 83
381 548 628 899 146 208 346 492 778 1110 133 191 397 566 522 745 20 28 87
124 150 215 64 91 254 363 424 605 170 242 329 470 354 506 627 898 743 1060
801 1119 l65 65 5 -895 5 -895 24 -60 c67 -166 267 -260 432 -205 31 11 105
48 165 83 60 35 222 128 359 207 138 79 302 173 365 210 63 37 180 104 260
150 80 46 197 113 260 150 63 36 178 103 255 147 77 44 241 139 365 211 124
71 242 139 263 151 21 12 98 56 170 98 306 176 1590 916 1802 1038 127 73 293
169 370 214 77 44 143 81 148 81 4 0 7 -325 7 -723z"/>
<path d="M33974 42620 c-177 -32 -352 -135 -525 -308 -205 -207 -335 -444
-406 -743 -17 -68 -18 -139 -15 -925 l3 -850 -613 -354 c-337 -194 -638 -368
-668 -386 -49 -29 -167 -97 -790 -456 -183 -106 -374 -216 -555 -321 -66 -38
-239 -138 -385 -222 -146 -84 -395 -228 -555 -320 -159 -92 -393 -227 -520
-300 -638 -368 -631 -364 -745 -476 -144 -143 -288 -379 -354 -580 -56 -175
-57 -197 -53 -1119 4 -954 0 -912 82 -1077 140 -284 438 -397 763 -291 60 20
243 121 797 443 94 54 242 139 330 190 207 119 331 191 485 280 69 40 143 83
165 95 22 12 157 90 300 173 304 176 668 387 950 549 110 63 319 184 465 268
146 84 382 221 525 303 143 83 285 165 315 183 l55 33 3 -157 c20 -1187 18
-1132 41 -1212 70 -238 246 -409 469 -455 267 -55 568 62 803 313 85 90 93
100 353 472 105 151 340 487 521 745 181 259 458 655 615 880 478 684 675 965
753 1075 41 58 184 263 319 455 134 193 260 373 279 400 940 1337 1005 1436
1068 1643 51 167 64 259 58 422 -6 162 -20 225 -74 340 -27 56 -55 94 -112
150 -113 113 -150 129 -521 229 -318 86 -1081 292 -1445 390 -225 61 -466 126
-535 145 -69 19 -204 56 -300 81 -96 26 -195 52 -220 60 -25 7 -88 25 -140 39
-52 14 -239 64 -415 112 -281 75 -332 86 -420 89 -55 2 -123 0 -151 -5z m311
-745 c273 -72 757 -199 1070 -281 160 -42 355 -93 435 -114 176 -47 738 -194
945 -248 83 -22 220 -58 305 -80 85 -23 234 -62 330 -87 262 -68 240 -57 240
-118 0 -72 -34 -188 -79 -272 -31 -59 -142 -221 -333 -490 -19 -27 -198 -284
-398 -570 -199 -286 -388 -556 -420 -600 -31 -44 -78 -111 -105 -150 -86 -124
-536 -767 -609 -870 -39 -55 -85 -120 -102 -145 -70 -101 -280 -401 -449 -643
-99 -142 -327 -468 -507 -725 -479 -684 -481 -688 -627 -894 -125 -175 -211
-271 -229 -254 -4 4 -9 407 -12 894 -6 980 0 906 -70 1007 -64 93 -204 154
-319 140 -85 -10 -78 -7 -676 -352 -168 -98 -617 -356 -960 -553 -277 -159
-389 -224 -687 -396 -73 -43 -207 -120 -298 -172 -91 -52 -221 -127 -290 -167
-121 -70 -261 -151 -520 -300 -69 -40 -183 -106 -255 -147 -71 -41 -222 -128
-335 -193 -113 -65 -248 -143 -300 -173 -52 -30 -192 -110 -310 -178 l-215
-123 -3 737 c-2 825 -6 778 71 927 30 57 63 102 117 155 66 66 105 92 335 224
143 82 312 180 375 216 121 70 515 298 1170 675 217 126 447 258 510 295 63
37 133 78 155 90 22 12 114 65 205 118 91 52 266 154 390 225 124 71 295 170
380 219 85 50 243 141 350 203 751 433 990 572 1029 598 24 16 57 49 75 74 65
92 61 23 66 1103 5 971 5 986 26 1036 12 28 38 76 58 107 49 73 263 297 285
297 9 0 93 -20 186 -45z"/>
<path d="M14172 44379 c-63 -25 -138 -95 -170 -161 -51 -104 -50 -81 -54
-1608 -3 -1355 -2 -1429 15 -1505 57 -247 196 -504 369 -684 186 -193 405
-294 565 -261 108 23 181 77 227 169 57 111 54 44 58 1616 3 1335 2 1455 -14
1515 -73 284 -211 526 -404 711 -200 191 -428 271 -592 208z"/>
<path d="M14205 38511 c-84 -21 -162 -88 -205 -176 -48 -99 -48 -95 -55 -1565
-7 -1543 -9 -1480 61 -1689 71 -213 184 -394 348 -556 164 -162 295 -232 452
-242 146 -10 252 45 316 164 59 108 56 39 60 1623 l3 1455 -23 85 c-119 435
-435 811 -754 896 -56 15 -153 17 -203 5z"/>
<path d="M53270 32084 c-14 -2 -56 -9 -95 -15 -287 -46 -662 -244 -975 -515
-310 -268 -576 -593 -808 -989 -326 -556 -507 -1167 -505 -1710 0 -294 43
-506 142 -710 124 -255 327 -427 578 -491 127 -32 336 -34 483 -4 622 127
1311 716 1767 1510 414 721 584 1502 458 2101 -73 348 -252 606 -513 738 -112
56 -221 82 -372 86 -74 2 -146 2 -160 -1z"/>
<path d="M44920 31598 c-3 -3 -43 -8 -90 -12 -286 -21 -653 -118 -1003 -266
-462 -195 -935 -497 -1417 -904 -195 -165 -693 -660 -876 -871 -831 -958
-1547 -2135 -2097 -3445 -531 -1264 -869 -2619 -963 -3855 -21 -281 -29 -866
-15 -1095 17 -267 20 -307 42 -490 168 -1412 756 -2451 1644 -2903 241 -123
443 -186 725 -227 260 -38 644 -24 920 35 725 152 1493 575 2230 1226 190 167
572 551 750 754 572 650 1133 1475 1578 2320 200 380 435 887 581 1250 40 99
86 213 102 253 92 226 260 724 373 1102 92 310 217 824 276 1140 223 1183 254
2220 94 3172 -209 1251 -788 2178 -1609 2578 -236 115 -401 167 -685 216 -81
14 -549 32 -560 22z m535 -731 c336 -76 610 -230 851 -478 323 -334 548 -778
699 -1378 242 -963 211 -2263 -86 -3606 -366 -1655 -1120 -3335 -2098 -4675
-455 -624 -966 -1173 -1471 -1581 -757 -613 -1497 -939 -2130 -939 -452 0
-867 175 -1195 505 -176 177 -307 367 -445 650 -202 411 -323 871 -392 1485
-25 228 -37 985 -19 1233 73 993 249 1861 581 2857 704 2116 1932 4007 3308
5092 392 310 823 563 1201 705 181 68 316 105 511 139 120 21 159 23 355 20
190 -3 235 -7 330 -29z"/>
<path d="M43190 27658 c-68 -19 -140 -86 -188 -173 l-27 -50 -5 -289 -5 -289
-23 -15 c-83 -55 -257 -193 -358 -284 -501 -451 -827 -1038 -905 -1633 -16
-126 -6 -358 20 -458 63 -239 194 -361 432 -403 160 -28 391 -5 694 70 77 19
141 33 143 32 1 -2 5 -347 9 -767 l6 -764 -119 -57 c-294 -138 -587 -223 -839
-243 -103 -8 -175 -41 -236 -105 -91 -97 -155 -263 -147 -380 5 -70 24 -108
68 -138 32 -22 42 -24 120 -18 287 20 668 133 1072 319 l77 36 3 -269 3 -269
29 -30 c35 -37 71 -40 131 -11 89 43 174 159 194 264 5 27 7 155 4 285 l-5
236 132 95 c660 473 1115 1143 1200 1767 18 134 8 447 -18 540 -46 166 -127
281 -240 341 -191 102 -490 86 -961 -49 -57 -16 -106 -27 -110 -23 -3 3 -7
360 -9 793 l-3 787 158 76 c237 114 405 172 660 227 113 24 156 46 217 108 88
89 159 280 142 385 -19 117 -70 150 -204 130 -239 -37 -540 -141 -856 -298
-61 -30 -111 -54 -113 -54 -2 0 -3 107 -3 238 0 134 -5 253 -11 275 -15 57
-67 83 -129 65z m-228 -2850 c-5 -5 -57 -19 -118 -33 -459 -105 -638 -11 -636
335 1 169 56 350 161 528 111 189 314 416 504 563 l92 71 3 -728 c1 -400 -2
-732 -6 -736z m1039 -461 c57 -25 100 -67 125 -122 21 -44 24 -65 24 -175 0
-320 -138 -611 -424 -895 -96 -96 -356 -305 -378 -305 -4 0 -8 321 -8 714 l0
715 54 15 c53 16 253 60 311 69 65 11 260 0 296 -16z"/>
<path d="M34565 21279 c-373 -35 -808 -266 -1189 -630 -510 -487 -886 -1108
-1084 -1789 -200 -685 -149 -1334 133 -1700 63 -81 160 -169 240 -216 87 -50
129 -68 230 -96 107 -30 346 -32 475 -5 692 148 1419 806 1870 1692 219 430
346 842 391 1262 15 144 7 478 -15 593 -48 265 -147 476 -295 633 -184 195
-450 285 -756 256z"/>
<path d="M30960 16189 c-417 -108 -854 -597 -1034 -1156 -55 -172 -71 -273
-70 -458 1 -130 5 -174 22 -236 57 -208 177 -336 349 -375 183 -40 401 22 615
176 134 95 326 299 430 455 370 554 447 1184 179 1477 -115 125 -294 168 -491
117z"/>
</g>
</svg>
