<?xml version="1.0" standalone="no"?>
<!DOCTYPE svg PUBLIC "-//W3C//DTD SVG 20010904//EN"
 "http://www.w3.org/TR/2001/REC-SVG-20010904/DTD/svg10.dtd">
<svg version="1.0" xmlns="http://www.w3.org/2000/svg"
 width="512.000000pt" height="512.000000pt" viewBox="0 0 512.000000 512.000000"
 preserveAspectRatio="xMidYMid meet">

<g transform="translate(0.000000,512.000000) scale(0.100000,-0.100000)"
fill="#000000" stroke="none">
<path d="M4140 5017 c-31 -17 -2370 -1377 -2566 -1493 -152 -89 -199 -132
-210 -191 -4 -21 -4 -704 0 -1518 6 -1376 8 -1481 24 -1497 9 -10 87 -59 172
-109 128 -76 159 -90 185 -86 35 6 2705 1546 2747 1585 15 14 35 45 44 69 16
41 17 153 11 1531 -6 1417 -7 1488 -25 1511 -17 24 -325 211 -346 211 -6 0
-22 -6 -36 -13z m310 -456 l0 -188 -1357 -782 -1358 -781 -3 172 c-2 111 1
180 8 193 9 17 2679 1572 2703 1574 4 1 7 -84 7 -188z m-551 107 c47 -28 94
-57 104 -64 16 -10 10 -16 -55 -54 -506 -293 -2174 -1253 -2184 -1257 -15 -5
-216 107 -212 119 4 11 2230 1306 2247 1307 7 1 52 -22 100 -51z m559 -1636
l2 -1242 -27 -29 c-26 -28 -282 -177 -1958 -1141 -385 -221 -704 -406 -709
-411 -36 -34 -36 -47 -34 1252 l3 1261 1350 778 c743 428 1355 777 1360 776 7
-2 11 -427 13 -1244z m-2890 -267 l82 -50 0 -1113 c0 -612 -3 -1111 -7 -1109
-5 2 -52 30 -105 61 l-98 57 0 1115 0 1115 23 -13 c13 -7 60 -35 105 -63z"/>
<path d="M2246 3330 c-29 -35 -34 -71 -11 -90 31 -26 89 36 83 88 -4 40 -39
41 -72 2z"/>
<path d="M2067 3230 c-45 -35 -45 -110 0 -110 22 0 73 55 73 79 0 19 -24 51
-39 51 -5 0 -20 -9 -34 -20z"/>
<path d="M1868 3123 c-43 -47 -39 -103 7 -103 58 0 90 111 34 118 -15 2 -32
-4 -41 -15z"/>
<path d="M4113 3889 c-68 -39 -123 -76 -123 -83 0 -15 20 -36 35 -36 6 0 56
26 111 59 l99 59 5 -112 c5 -110 5 -111 30 -111 l25 0 3 134 c3 141 -3 161
-42 160 -11 0 -76 -32 -143 -70z"/>
<path d="M4244 3557 c-3 -8 -4 -34 -2 -58 3 -39 6 -44 28 -44 24 0 25 3 25 55
0 49 -2 55 -23 58 -12 2 -24 -3 -28 -11z"/>
<path d="M3420 3194 c-620 -132 -1281 -936 -1444 -1755 -14 -68 -28 -158 -31
-199 -11 -122 -8 -122 197 3 95 58 176 111 179 118 4 8 14 61 23 118 18 120
75 296 138 431 180 384 496 706 789 804 296 99 526 -35 586 -343 10 -50 22
-82 31 -86 16 -6 349 182 362 205 11 20 -13 162 -40 248 -59 178 -175 329
-307 400 -128 68 -323 91 -483 56z m-360 -372 l0 -148 -62 -41 c-185 -123
-396 -364 -513 -585 -26 -49 -49 -88 -53 -88 -24 1 -195 30 -199 34 -8 8 91
188 164 300 130 200 277 373 424 501 88 78 216 174 232 175 4 0 7 -67 7 -148z
m1039 13 c40 -80 75 -191 86 -275 l6 -45 -136 -77 c-85 -48 -137 -73 -139 -65
-35 118 -57 172 -93 225 -24 36 -43 67 -43 69 0 5 144 197 193 256 l40 48 23
-28 c13 -15 41 -64 63 -108z"/>
<path d="M3306 2380 c-69 -105 -133 -193 -143 -196 -137 -46 -257 -183 -309
-351 -42 -135 -23 -254 49 -305 49 -35 134 -37 202 -4 108 54 218 195 259 335
23 77 21 185 -5 241 l-20 45 72 197 c39 109 69 205 65 213 -3 8 -14 15 -25 15
-15 0 -52 -49 -145 -190z m-247 -392 c-43 -76 -54 -103 -57 -151 -3 -44 -1
-62 13 -76 37 -42 95 -34 152 21 22 22 47 69 80 150 25 65 50 118 54 118 4 0
12 -15 18 -32 23 -71 -27 -225 -107 -331 -43 -56 -135 -122 -186 -131 -47 -9
-100 14 -120 53 -38 73 -9 227 64 340 32 50 128 146 137 137 3 -3 -19 -47 -48
-98z"/>
<path d="M2125 769 c-115 -66 -216 -126 -224 -134 -17 -16 -8 -45 14 -45 24 0
455 250 455 264 0 12 -20 36 -29 36 -4 0 -100 -55 -216 -121z"/>
<path d="M2437 4893 c-15 -14 -7 -62 12 -68 39 -12 69 23 49 59 -9 16 -49 22
-61 9z"/>
<path d="M915 4685 l-330 -193 -3 -471 -2 -471 22 0 c12 0 99 45 194 100 96
55 176 100 178 100 3 0 6 -30 8 -67 2 -54 6 -68 20 -71 9 -2 139 67 288 154
l270 156 -2 372 c-3 365 -3 371 -23 374 -12 2 -69 -24 -128 -58 -58 -33 -109
-60 -112 -60 -3 0 -5 69 -5 153 0 150 -6 179 -34 176 -6 0 -159 -88 -341 -194z
m308 -176 c-5 -5 -60 -39 -123 -77 l-115 -68 -5 -84 -5 -85 -77 -44 -78 -45
-2 -189 -3 -190 -85 -48 c-47 -27 -88 -49 -92 -49 -5 0 -8 184 -8 408 l0 408
298 171 297 171 3 -136 c1 -74 -1 -139 -5 -143z m273 -555 c-3 -8 -412 -248
-448 -262 -4 -2 -8 140 -8 316 l0 319 228 131 227 131 3 -312 c1 -171 0 -317
-2 -323z"/>
<path d="M2290 4806 c-6 -8 -10 -25 -8 -38 2 -18 9 -23 33 -23 24 0 31 5 33
24 3 15 -3 30 -14 38 -23 17 -29 16 -44 -1z"/>
<path d="M2462 4768 c-17 -17 -15 -32 7 -52 16 -14 23 -15 41 -6 31 17 24 64
-10 68 -14 2 -31 -3 -38 -10z"/>
<path d="M2140 4716 c-6 -8 -10 -25 -8 -38 2 -18 9 -23 33 -23 24 0 31 5 33
24 3 15 -3 30 -14 38 -23 17 -29 16 -44 -1z"/>
<path d="M1982 4627 c-6 -7 -9 -23 -6 -34 13 -47 78 -33 72 15 -2 21 -9 28
-29 30 -14 2 -31 -3 -37 -11z"/>
<path d="M2460 4591 c-25 -47 36 -83 64 -38 8 12 8 22 0 35 -16 25 -51 27 -64
3z"/>
<path d="M1830 4531 c-8 -17 -7 -24 10 -41 28 -28 63 -11 58 28 -4 35 -51 44
-68 13z"/>
<path d="M1680 4450 c-22 -40 26 -80 58 -48 17 17 15 55 -4 62 -27 11 -43 7
-54 -14z"/>
<path d="M2466 4424 c-19 -19 -20 -25 -3 -48 19 -26 61 -18 65 13 3 15 -3 30
-14 38 -23 17 -29 16 -48 -3z"/>
</g>
</svg>
