<?xml version="1.0" standalone="no"?>
<!DOCTYPE svg PUBLIC "-//W3C//DTD SVG 20010904//EN"
 "http://www.w3.org/TR/2001/REC-SVG-20010904/DTD/svg10.dtd">
<svg version="1.0" xmlns="http://www.w3.org/2000/svg"
 width="512.000000pt" height="512.000000pt" viewBox="0 0 512.000000 512.000000"
 preserveAspectRatio="xMidYMid meet">

<g transform="translate(0.000000,512.000000) scale(0.100000,-0.100000)"
fill="#000000" stroke="none">
<path d="M4838 4873 c-51 -47 -77 -103 -78 -165 0 -39 4 -50 24 -63 22 -15 28
-15 62 0 53 22 73 42 100 100 62 132 -9 216 -108 128z"/>
<path d="M4640 4716 c-6 -8 -10 -25 -8 -38 2 -18 9 -23 32 -23 17 0 33 7 40
18 9 15 7 22 -13 38 -28 23 -35 23 -51 5z"/>
<path d="M3145 4649 c-498 -67 -1136 -433 -1620 -930 -166 -170 -316 -360
-349 -440 -34 -84 -26 -599 14 -915 48 -373 141 -665 274 -863 l37 -54 -35
-51 c-65 -94 -69 -116 -74 -373 -4 -255 4 -316 55 -403 195 -332 872 -502
1420 -355 316 84 532 243 606 443 18 49 21 86 25 254 2 122 0 224 -7 265 -23
133 -100 248 -227 339 -35 25 -64 47 -64 49 0 2 27 48 60 104 262 441 457
1021 535 1591 35 260 46 419 52 740 5 284 3 340 -9 371 -14 31 -35 46 -169
120 -85 47 -170 91 -189 98 -45 17 -244 23 -335 10z m-1 -157 l84 -48 -124
-41 c-401 -136 -822 -401 -1191 -748 -158 -149 -338 -359 -433 -504 l-15 -23
-108 62 c-59 34 -107 64 -107 66 0 7 76 110 144 194 85 106 292 316 415 423
348 300 723 518 1091 633 58 18 117 33 133 34 15 0 64 -21 111 -48z m609 -101
c16 -16 14 -494 -2 -711 -60 -775 -250 -1413 -584 -1966 -130 -215 -303 -445
-451 -600 l-92 -96 -150 5 c-170 5 -231 18 -349 76 -261 128 -442 421 -529
856 -56 281 -91 678 -84 946 5 178 10 193 105 321 309 410 811 804 1303 1021
187 82 321 123 530 161 53 10 290 0 303 -13z m-2391 -1658 l76 -44 6 -72 c3
-40 8 -124 11 -187 11 -203 45 -436 86 -589 11 -40 18 -75 17 -76 -2 -2 -43
20 -92 48 l-89 52 -24 79 c-60 204 -113 573 -113 789 0 78 -14 78 122 0z
m1874 -1252 c117 -95 177 -202 177 -316 0 -240 -276 -446 -698 -520 -221 -39
-503 -27 -700 30 -244 71 -438 202 -506 343 -45 91 -35 227 22 316 l29 47 64
-58 c40 -37 126 -94 233 -155 324 -187 412 -218 635 -225 108 -4 156 -2 179 7
50 21 281 287 428 493 35 48 66 87 70 87 3 0 34 -22 67 -49z m-66 -890 l0
-119 -102 -51 c-184 -90 -380 -131 -627 -131 -225 0 -437 40 -588 110 l-63 29
0 122 c0 112 1 121 18 114 397 -170 906 -164 1295 15 34 16 63 29 65 29 1 1 2
-53 2 -118z"/>
<path d="M3450 4215 c-47 -8 -125 -26 -175 -40 -102 -30 -123 -47 -91 -74 11
-10 29 -8 80 8 63 19 213 51 243 51 12 0 14 -23 12 -139 -2 -140 1 -161 25
-161 28 0 34 29 41 176 7 146 7 152 -14 173 -11 11 -24 21 -28 20 -5 -1 -46
-7 -93 -14z"/>
<path d="M3524 3732 c-15 -9 -37 -173 -25 -185 5 -5 17 -7 27 -5 14 2 21 16
27 58 14 100 3 153 -29 132z"/>
<path d="M2674 3260 c-130 -65 -245 -245 -244 -384 1 -60 33 -125 70 -139 16
-6 30 -18 30 -26 0 -8 -14 -95 -31 -193 -17 -99 -29 -181 -26 -184 7 -8 382
212 381 223 -1 4 -21 72 -45 151 -42 140 -42 144 -25 170 64 98 97 226 78 300
-25 94 -99 126 -188 82z"/>
<path d="M4486 4619 c-21 -31 -4 -61 32 -57 24 3 27 7 27 38 0 28 -4 36 -22
38 -13 2 -27 -5 -37 -19z"/>
<path d="M4397 4482 c-22 -24 -21 -35 2 -56 15 -14 24 -15 40 -6 27 14 28 56
2 70 -25 13 -25 13 -44 -8z"/>
<path d="M4300 4331 c-25 -47 36 -83 64 -38 8 12 8 22 0 35 -16 25 -51 27 -64
3z"/>
<path d="M4200 4180 c-23 -44 29 -80 64 -44 19 18 19 20 6 45 -14 25 -56 25
-70 -1z"/>
<path d="M4859 4117 c-103 -69 -137 -267 -46 -267 50 0 122 68 146 139 18 56
14 99 -14 126 -30 31 -43 31 -86 2z"/>
<path d="M4060 4091 c-25 -47 36 -83 64 -38 8 12 8 22 0 35 -16 25 -51 27 -64
3z"/>
<path d="M3916 4014 c-21 -21 -20 -37 3 -58 15 -14 24 -15 40 -6 27 14 28 56
2 70 -25 13 -27 13 -45 -6z"/>
<path d="M4586 3864 c-11 -29 -6 -45 17 -53 38 -15 64 10 52 50 -8 24 -60 26
-69 3z"/>
<path d="M4442 3788 c-18 -18 -14 -46 7 -58 30 -15 40 -12 53 15 19 41 -28 75
-60 43z"/>
<path d="M4292 3698 c-18 -18 -14 -46 7 -58 30 -15 40 -12 53 15 19 41 -28 75
-60 43z"/>
<path d="M4142 3618 c-17 -17 -15 -57 3 -64 48 -19 84 25 49 60 -19 19 -36 20
-52 4z"/>
<path d="M3991 3526 c-20 -23 -10 -60 17 -64 25 -4 52 13 52 32 -1 33 -50 56
-69 32z"/>
<path d="M4872 3303 c-86 -42 -147 -208 -94 -256 88 -80 252 164 167 248 -28
29 -30 29 -73 8z"/>
<path d="M4134 3066 c-11 -29 1 -51 28 -54 33 -4 57 30 37 54 -15 18 -58 18
-65 0z"/>
<path d="M4292 3068 c-29 -29 -3 -72 40 -66 19 2 23 9 23 38 0 30 -4 35 -25
38 -14 2 -31 -3 -38 -10z"/>
<path d="M4610 3046 c-6 -8 -10 -25 -8 -38 2 -18 9 -23 33 -23 24 0 31 5 33
23 4 25 -13 52 -33 52 -7 0 -18 -7 -25 -14z"/>
<path d="M3987 2993 c-12 -12 -7 -50 8 -63 17 -14 51 -5 59 16 13 35 -41 73
-67 47z"/>
<path d="M4453 2993 c-7 -2 -13 -13 -13 -23 0 -44 72 -55 78 -11 5 33 -27 50
-65 34z"/>
<path d="M608 2369 c-22 -13 -23 -52 -2 -70 17 -14 40 -5 58 24 8 12 5 21 -8
36 -22 24 -24 24 -48 10z"/>
<path d="M255 2341 c-65 -40 -105 -108 -105 -180 0 -31 6 -44 27 -61 49 -38
122 2 167 92 59 117 5 208 -89 149z"/>
<path d="M442 2348 c-29 -29 3 -82 36 -61 25 15 22 67 -3 71 -11 1 -26 -3 -33
-10z"/>
<path d="M912 2328 c-25 -25 -6 -68 30 -68 9 0 22 9 28 20 22 40 -26 80 -58
48z"/>
<path d="M750 2290 c-9 -17 -8 -26 5 -46 19 -29 29 -30 56 -3 18 18 19 23 6
42 -20 30 -53 33 -67 7z"/>
<path d="M1062 1893 c-22 -8 -35 -43 -21 -59 26 -31 85 -4 72 34 -6 16 -35 30
-51 25z"/>
<path d="M885 1791 c-13 -44 23 -71 61 -46 27 18 28 19 14 46 -14 26 -66 26
-75 0z"/>
<path d="M747 1713 c-26 -26 12 -80 47 -67 21 8 30 42 16 59 -13 15 -51 20
-63 8z"/>
<path d="M602 1628 c-25 -25 -6 -68 30 -68 10 0 24 12 30 26 11 22 10 28 -7
40 -23 17 -37 18 -53 2z"/>
<path d="M452 1538 c-25 -25 -6 -68 30 -68 9 0 22 9 28 20 22 40 -26 80 -58
48z"/>
<path d="M239 1517 c-74 -50 -115 -191 -68 -238 61 -61 199 67 199 183 0 73
-64 100 -131 55z"/>
<path d="M1177 1417 c-15 -12 -21 -28 -18 -54 2 -18 40 -26 56 -13 36 30 -1
95 -38 67z"/>
<path d="M1024 1332 c-35 -24 -15 -76 27 -70 16 2 25 10 27 26 6 38 -26 64
-54 44z"/>
<path d="M858 1225 c-14 -30 3 -55 38 -55 25 0 42 36 30 65 -9 25 -55 18 -68
-10z"/>
<path d="M741 1126 c-7 -8 -10 -24 -6 -35 14 -45 79 -30 73 17 -2 21 -9 28
-29 30 -14 2 -31 -4 -38 -12z"/>
<path d="M652 978 c-25 -25 -7 -68 29 -68 25 0 42 26 35 55 -7 27 -42 35 -64
13z"/>
<path d="M562 828 c-32 -32 18 -87 53 -58 28 23 12 70 -25 70 -9 0 -21 -5 -28
-12z"/>
<path d="M444 695 c-8 -31 12 -57 40 -53 13 2 22 12 24 26 7 49 -52 74 -64 27z"/>
<path d="M264 690 c-32 -13 -89 -85 -102 -129 -53 -175 109 -193 187 -21 49
107 4 186 -85 150z"/>
</g>
</svg>
