<?xml version="1.0" standalone="no"?>
<!DOCTYPE svg PUBLIC "-//W3C//DTD SVG 20010904//EN"
 "http://www.w3.org/TR/2001/REC-SVG-20010904/DTD/svg10.dtd">
<svg version="1.0" xmlns="http://www.w3.org/2000/svg"
 width="512.000000pt" height="512.000000pt" viewBox="0 0 512.000000 512.000000"
 preserveAspectRatio="xMidYMid meet">

<g transform="translate(0.000000,512.000000) scale(0.100000,-0.100000)"
fill="#000000" stroke="none">
<path d="M362 4812 c-125 -51 -252 -242 -252 -379 0 -126 94 -206 203 -173
171 51 312 318 253 475 -31 81 -116 114 -204 77z m124 -87 c13 -20 16 -40 11
-90 -8 -112 -84 -232 -170 -274 -59 -29 -91 -27 -117 7 -43 53 -9 189 71 286
78 93 170 125 205 71z"/>
<path d="M2265 4310 c-351 -42 -748 -338 -1040 -775 -92 -138 -213 -385 -264
-540 -73 -219 -92 -322 -98 -545 l-5 -195 -62 -42 c-356 -245 -629 -756 -629
-1178 0 -183 47 -321 141 -414 58 -57 486 -305 574 -332 111 -35 243 -19 383
46 39 18 291 159 560 315 270 155 495 283 500 283 9 0 840 -479 1014 -584 34
-22 67 -39 72 -39 10 0 1472 842 1495 860 12 11 14 61 12 337 l-3 325 -250
145 c-137 80 -252 148 -255 150 -3 3 4 11 15 19 221 160 411 422 508 700 58
165 72 243 71 394 0 199 -44 332 -138 418 -23 20 -149 99 -281 175 -272 155
-314 170 -426 149 -60 -11 -62 -11 -98 18 -53 42 -308 192 -440 258 l-114 57
-101 0 c-154 -1 -304 -57 -453 -169 l-71 -54 -155 88 c-206 118 -312 148 -462
130z m1257 -84 c20 -7 83 -39 139 -71 l102 -59 -83 -22 c-113 -30 -251 -102
-356 -186 l-88 -71 -15 24 c-33 50 -128 142 -183 176 -32 20 -58 40 -58 44 0
27 164 119 275 155 81 27 207 31 267 10z m-1554 -279 c84 -49 154 -92 157 -97
2 -4 -23 -29 -58 -56 -291 -228 -555 -618 -697 -1030 -72 -209 -121 -497 -105
-621 3 -29 4 -53 1 -53 -3 0 -78 41 -166 91 l-160 92 0 86 c0 308 68 588 215
886 117 239 247 424 417 595 86 87 225 203 237 198 4 -2 75 -43 159 -91z m987
24 c91 -42 145 -87 194 -163 61 -95 71 -108 81 -108 5 0 40 27 77 61 94 85
178 144 268 185 248 115 454 64 555 -137 34 -66 60 -168 60 -235 0 -73 35 -83
107 -28 150 114 344 155 459 96 281 -144 223 -707 -119 -1149 -61 -78 -189
-202 -259 -247 l-56 -38 -485 282 -485 282 5 222 c5 200 4 223 -11 235 -15 12
-22 12 -52 -3 -19 -9 -288 -167 -597 -352 -308 -185 -627 -374 -708 -420 -81
-47 -151 -90 -157 -97 -6 -7 -13 -212 -18 -549 l-7 -536 54 -34 c30 -19 127
-77 216 -129 89 -52 163 -96 163 -99 0 -10 -987 -580 -1047 -605 -166 -67
-310 -48 -413 55 -79 79 -113 186 -112 355 0 254 85 508 254 761 87 131 251
301 355 368 46 30 75 55 78 69 2 12 6 105 8 207 3 158 8 202 31 305 78 335
261 697 495 976 174 208 383 369 585 449 118 47 187 60 307 57 94 -3 112 -7
174 -36z m1299 -61 c41 -6 89 -27 160 -66 154 -87 149 -78 64 -104 -40 -12
-106 -39 -146 -61 -41 -21 -78 -37 -83 -33 -5 3 -9 16 -9 29 0 33 -38 154 -61
194 -16 27 -18 36 -7 42 16 11 12 11 82 -1z m-970 -937 c-4 -82 -8 -150 -10
-152 -3 -3 -193 105 -237 135 -16 10 -3 21 115 88 73 42 134 76 136 76 2 0 0
-66 -4 -147z m-107 -171 c120 -71 535 -312 923 -537 388 -224 711 -413 718
-420 10 -9 -130 -94 -680 -408 -382 -218 -701 -399 -709 -402 -12 -5 -816 454
-1481 846 l-68 40 0 79 c0 44 2 80 4 80 2 0 347 -200 766 -446 420 -245 768
-443 775 -440 7 2 224 126 481 274 258 148 499 286 536 306 80 44 95 60 78 80
-6 8 -386 232 -843 497 -458 265 -838 488 -846 494 -11 10 -1 19 50 49 35 19
67 36 71 36 4 0 105 -58 225 -128z m127 -611 c454 -264 832 -483 840 -488 12
-6 -81 -64 -354 -222 -203 -117 -373 -211 -377 -208 -5 2 -351 201 -771 442
l-763 438 3 86 3 86 295 172 c162 95 296 173 297 173 1 0 373 -216 827 -479z
m-2231 -85 l157 -89 -63 -47 c-133 -102 -285 -282 -385 -457 -46 -80 -119
-247 -151 -345 -7 -21 -15 -38 -18 -38 -8 0 -306 171 -320 184 -9 9 -6 28 13
86 69 206 215 448 367 607 94 98 213 196 232 191 6 -2 81 -43 168 -92z m1397
-601 l569 -330 1 -277 0 -277 -133 77 c-73 42 -334 194 -580 337 l-447 259 0
274 c0 177 4 272 10 270 5 -1 266 -151 580 -333z m2390 2 l0 -272 -702 -405
c-386 -223 -705 -406 -710 -408 -4 -2 -8 120 -8 271 l0 275 703 406 c386 223
705 406 710 406 4 0 7 -123 7 -273z"/>
<path d="M2706 3888 c-18 -10 -22 -53 -5 -63 6 -4 40 -11 76 -15 89 -11 146
-48 201 -130 24 -36 50 -68 56 -72 15 -9 56 18 56 36 0 26 -80 134 -126 169
-75 58 -215 99 -258 75z"/>
<path d="M3690 3876 c-72 -20 -170 -68 -181 -88 -12 -22 5 -58 27 -58 9 0 44
13 78 29 138 66 246 60 318 -16 42 -44 58 -94 58 -178 0 -69 2 -76 23 -84 16
-7 27 -4 42 10 31 30 27 146 -7 221 -67 145 -202 207 -358 164z"/>
<path d="M4281 1261 c-6 -11 -11 -42 -11 -69 l0 -50 -112 -64 c-62 -34 -116
-64 -120 -66 -4 -2 -8 14 -8 36 0 42 -20 68 -45 58 -12 -4 -15 -24 -15 -91 0
-79 1 -85 20 -85 22 0 310 161 329 184 7 9 11 43 9 87 -2 60 -6 74 -20 77 -9
2 -21 -6 -27 -17z"/>
<path d="M300 4120 c-28 -28 -11 -63 28 -58 21 2 28 9 30 30 5 39 -30 56 -58
28z"/>
<path d="M291 3942 c-8 -16 -7 -25 7 -42 16 -20 21 -21 41 -11 33 18 26 65
-11 69 -18 2 -30 -3 -37 -16z"/>
<path d="M296 3775 c-19 -20 -20 -26 -3 -49 26 -36 84 4 61 42 -15 23 -38 26
-58 7z"/>
<path d="M300 3600 c-28 -28 -11 -63 28 -58 21 2 28 9 30 30 5 39 -30 56 -58
28z"/>
<path d="M291 3422 c-8 -16 -7 -25 7 -42 16 -20 21 -21 41 -11 33 18 26 65
-11 69 -18 2 -30 -3 -37 -16z"/>
<path d="M290 3251 c-13 -25 -4 -48 21 -56 38 -12 65 35 37 63 -18 18 -46 14
-58 -7z"/>
<path d="M296 3078 c-21 -30 -4 -60 32 -56 34 4 44 45 16 65 -24 18 -30 17
-48 -9z"/>
<path d="M290 2901 c-8 -17 -7 -24 10 -41 28 -28 63 -11 58 28 -4 35 -51 44
-68 13z"/>
<path d="M690 2896 c-21 -26 -8 -61 24 -64 43 -5 61 32 30 62 -19 20 -38 20
-54 2z"/>
<path d="M534 2794 c-8 -33 15 -59 44 -50 46 15 34 76 -14 76 -17 0 -25 -7
-30 -26z"/>
<path d="M290 2731 c-13 -25 -4 -48 21 -56 38 -12 65 35 37 63 -18 18 -46 14
-58 -7z"/>
<path d="M408 2732 c-25 -5 -35 -50 -15 -69 29 -29 75 6 62 47 -7 21 -22 28
-47 22z"/>
</g>
</svg>
